<svg xmlns="http://www.w3.org/2000/svg" width="1024" height="1024" viewBox="0 0 1024 1024">
  <defs>
    <linearGradient id="body" x1="0" y1="0" x2="0.85" y2="1">
      <stop offset="0" stop-color="#39d2e0"/>
      <stop offset="1" stop-color="#0054a6"/>
    </linearGradient>
    <filter id="shadow" x="-20%" y="-20%" width="140%" height="150%">
      <feDropShadow dx="0" dy="28" stdDeviation="22" flood-color="#001832" flood-opacity="0.28"/>
    </filter>
  </defs>
  <rect x="128" y="116" width="768" height="772" rx="164" fill="url(#body)" filter="url(#shadow)"/>
  <rect x="128" y="116" width="768" height="772" rx="164" fill="none" stroke="#fff" stroke-opacity=".34" stroke-width="10"/>
  <rect x="260" y="172" width="504" height="98" rx="28" fill="#fff" fill-opacity=".95"/>
  <text x="512" y="235" text-anchor="middle" font-family="Arial, Segoe UI, sans-serif" font-weight="700" font-size="42" fill="#0054a6">PANASONIC</text>
  <rect x="246" y="332" width="532" height="372" rx="60" fill="#f4fcff" fill-opacity=".95"/>
  <rect x="306" y="404" width="412" height="220" rx="30" fill="#c5e7f3"/>
  <path d="M306 624 462 470 554 624Z" fill="#00a8cc"/>
  <path d="M438 624 614 458 718 624Z" fill="#0068be"/>
  <circle cx="639" cy="459" r="35" fill="#22cdda"/>
  <circle cx="512" cy="484" r="130" fill="#003c84" fill-opacity=".94"/>
  <circle cx="512" cy="484" r="90" fill="#0072c6"/>
  <circle cx="512" cy="484" r="56" fill="#22cdda"/>
  <circle cx="496" cy="468" r="22" fill="#fff" fill-opacity=".52"/>
  <rect x="326" y="676" width="184" height="130" rx="34" fill="#0054a6"/>
  <rect x="514" y="676" width="184" height="130" rx="34" fill="#22cdda"/>
  <path d="M503 745H608" stroke="#fff" stroke-width="18" stroke-linecap="round"/>
</svg>
